<svg id="Layer_1" data-name="Layer 1" xmlns="http://www.w3.org/2000/svg" viewBox="0 0 360 360"><defs><style>.cls-1{fill:#fff;}</style></defs><title>Untitled-2</title><rect width="360" height="360" rx="72" ry="72"/><path class="cls-1" d="M186.42,261.9c0,10.88-7.65,18.07-20.1,18.07h-7.42v13.57a2.69,2.69,0,0,1-2.7,2.7h-4.8a2.69,2.69,0,0,1-2.7-2.7v-47.1a2.69,2.69,0,0,1,2.7-2.7h14.92C178.77,243.75,186.42,251,186.42,261.9Zm-10.35,0c0-5.55-3.6-8.7-9.75-8.7h-7.42v17.32h7.42C172.47,270.53,176.07,267.38,176.07,261.9Z"/><path class="cls-1" d="M223.17,258.23h4.12a2.69,2.69,0,0,1,2.7,2.7v32.62a2.69,2.69,0,0,1-2.7,2.7h-4.12a2.69,2.69,0,0,1-2.7-2.7v-1.8c-2.4,3.15-6.22,5.4-12.15,5.4-11.77,0-18.52-10-18.52-19.87s6.75-19.95,18.52-19.95c5.92,0,9.75,2.25,12.15,5.4v-1.8A2.69,2.69,0,0,1,223.17,258.23Zm-3.08,19c0-5.92-3.75-10.8-10.27-10.8s-10.27,4.95-10.27,10.8,3.75,10.8,10.27,10.8S220.09,283.13,220.09,277.27Z"/><path class="cls-1" d="M265.47,258.23h5a2,2,0,0,1,1.88,2.77c-3.15,7.88-12.07,30.45-14,35.25-3.6,8.85-7,14.47-14.62,14.47a13.45,13.45,0,0,1-2.33-.23,2,2,0,0,1-1.72-1.95v-3.6a2,2,0,0,1,1.88-2c4-.15,6.22-2.55,8.32-8.92-.52-1.27-10.87-24.75-14.55-32.92a2,2,0,0,1,1.88-2.85h4.87a3.32,3.32,0,0,1,3.15,2.17l8.85,22.87,8.25-22.8A3.38,3.38,0,0,1,265.47,258.23Z"/><path class="cls-1" d="M141.49,243v10.8l-15,13.5h-18l15-13.5h-36l12-10.8Zm-21,29.7h-18l-15,13.5V297h42l12-10.8h-36Z"/><path class="cls-1" d="M165.38,75h-4.45A8.89,8.89,0,0,1,152,83.86v4.45a8.9,8.9,0,0,1,8.89,8.89h4.45a8.89,8.89,0,0,1,8.89-8.89V83.86A8.89,8.89,0,0,1,165.38,75Zm-2.22,14.86a13.44,13.44,0,0,0-3.75-3.75,13.45,13.45,0,0,0,3.75-3.75,13.44,13.44,0,0,0,3.75,3.75A13.44,13.44,0,0,0,163.16,89.84ZM182,63h-3.42a6.84,6.84,0,0,1-6.84,6.84v3.42a6.85,6.85,0,0,1,6.84,6.84H182a6.84,6.84,0,0,1,6.84-6.84V69.84A6.84,6.84,0,0,1,182,63Zm-1.71,11.43a10.34,10.34,0,0,0-2.88-2.88,10.34,10.34,0,0,0,2.88-2.88,10.34,10.34,0,0,0,2.88,2.88A10.34,10.34,0,0,0,180.26,74.44Zm-32.15-8.87h-2.39a4.79,4.79,0,0,1-4.79,4.79v2.39a4.79,4.79,0,0,1,4.79,4.79h2.39a4.79,4.79,0,0,1,4.79-4.79V70.35A4.79,4.79,0,0,1,148.11,65.57Zm-1.2,8a7.24,7.24,0,0,0-2-2,7.24,7.24,0,0,0,2-2,7.24,7.24,0,0,0,2,2A7.24,7.24,0,0,0,146.91,73.57Zm-76,73.24,101.89,58.82a6.84,6.84,0,0,0,9.34-2.5l12.07-20.91a37,37,0,0,0,29.55,14l6.4-.09,2.58,1.44-2.07,3.59a4.1,4.1,0,0,0,1.5,5.61l21.32,12.31a4.1,4.1,0,0,0,5.61-1.5L292,160.69a4.11,4.11,0,0,0-1.5-5.61l-21.32-12.31a4.1,4.1,0,0,0-5.61,1.5l-2.83,4.91-5.4-8.14a12.17,12.17,0,0,0-4.1-3.89l-44.53-25.71-7.53-4.35a12.34,12.34,0,0,0-8.09-1.5L163.16,110,111.09,80a8.21,8.21,0,0,0-11.21,3l-31.46,54.5A6.84,6.84,0,0,0,70.92,146.81Zm197.66,5.12,14.22,8.21-28.73,49.76-14.22-8.21Zm-68.12,25-1.81-2.37,8-13.79,7.12-1.91,1.48,1.71a29.16,29.16,0,0,0,15.71,9.07l4.71,1a4.11,4.11,0,1,0,1.62-8.07l-4.67-.94a20.62,20.62,0,0,1-11.23-6.48l-3.15-3.57a4.14,4.14,0,0,0-4.15-1.26l-26.12,7a4.13,4.13,0,0,1-2.81-.3,4.3,4.3,0,0,1-.72-.44h0a4.18,4.18,0,0,1-.57-.54l-.06-.07a4.09,4.09,0,0,1-.41-.59l-.09-.13a3.93,3.93,0,0,1,.09-3.93,4,4,0,0,1,2.47-1.89l4.37-1.17h0l17.44-4.67a4.1,4.1,0,0,0,2.89-5c-.43-1.63-3.38-3.09-3.45-3.13l-32.63-18.84,17.89-2.84a4.22,4.22,0,0,1,2.69.51l52.07,30.06a3.9,3.9,0,0,1,1.34,1.29l7.67,11.58-19.23,33.3-3.61-2a4,4,0,0,0-2.06-.53l-7.56.13A29,29,0,0,1,200.46,176.91Zm-35.4,14.77,15.78-27.34a12.31,12.31,0,0,0,9.23.84l5.32-1.43-19.68,34.08ZM90.42,148.59,121.2,95.28l67.53,39-4,6.86-1.07.29A12.25,12.25,0,0,0,175,158L158,187.58Zm-14.22-8.21L107,87.07l7.11,4.1L83.32,144.49Z"/><path class="cls-1" d="M116.21,140.86l-4.66,8.08,8.08,4.66,1.87-3.23-4.85-2.8,2.8-4.85Zm22.07-19.57,1.87-3.23-8.08-4.66-4.66,8.08,3.23,1.87,2.8-4.85Zm2.6,40.27L139,164.79l8.08,4.66,4.66-8.08-3.23-1.87-2.8,4.85Zm21.64-26.28-2.8,4.85,3.23,1.87,4.66-8.08-8.08-4.66-1.87,3.23Zm-20.64,9.63,11.31,6.53,1.87-3.23-11.31-6.53Zm-2-7.64,3.23,1.87,3.73-6.47-3.23-1.87Zm7.46-12.92-2.8,4.85,3.23,1.87,2.8-4.85Zm-18.65,32.31,3.23,1.87,10.26-17.77L126,131.42l-1.87,3.23L137,142.11Zm.25-4.16,5.6-9.69-9.69-5.6-5.6,9.69Zm-4.6-7,1.87-3.23,3.23,1.87-1.87,3.23ZM134.12,121l-5.6,9.69,9.69,5.6,5.6-9.69Zm4.6,7-1.87,3.23-3.23-1.87,1.87-3.23Zm11.56,2.37-5.6,9.69,9.69,5.6L160,136Zm4.6,7L153,140.56l-3.23-1.87,1.87-3.23ZM140,148.14l-4.66,8.08,3.23,1.87,4.66-8.08Zm4.85,2.8L143,154.17l4.85,2.8,1.87-3.23Zm-2.8,4.85L140.19,159l3.23,1.87,1.87-3.23Z"/></svg>