<svg id="Layer_1" data-name="Layer 1" xmlns="http://www.w3.org/2000/svg" xmlns:xlink="http://www.w3.org/1999/xlink" viewBox="0 0 360 360"><defs><style>.cls-1{fill:url(#linear-gradient);}.cls-2{fill:#26cad3;}.cls-3{fill:#fff;}</style><linearGradient id="linear-gradient" x1="180" y1="360" x2="180" gradientUnits="userSpaceOnUse"><stop offset="0" stop-color="#2e3391"/><stop offset="1" stop-color="#1759c2"/></linearGradient></defs><title>Untitled-2</title><rect class="cls-1" width="360" height="360" rx="72" ry="72"/><path class="cls-2" d="M154.84,196.8a2.63,2.63,0,0,1,2.63,2.7v4a2.63,2.63,0,0,1-2.62,2.7H129.72a2.67,2.67,0,0,1-2.63-2.7v-47.1a2.67,2.67,0,0,1,2.63-2.7h4.87a2.69,2.69,0,0,1,2.7,2.7V196.8Z"/><path class="cls-2" d="M202.46,187.27a20.06,20.06,0,1,1-20.1-19.95A19.74,19.74,0,0,1,202.46,187.27Zm-9.75,0c0-5.92-4-10.8-10.35-10.8s-10.27,4.87-10.27,10.8,4,10.8,10.27,10.8S192.71,193.2,192.71,187.27Z"/><path class="cls-2" d="M240.34,168.23h4.12a2.69,2.69,0,0,1,2.7,2.7v32.62a2.69,2.69,0,0,1-2.7,2.7h-4.12a2.69,2.69,0,0,1-2.7-2.7v-1.8c-2.4,3.15-6.22,5.4-12.15,5.4-11.77,0-18.52-10-18.52-19.87s6.75-19.95,18.52-19.95c5.92,0,9.75,2.25,12.15,5.4v-1.8A2.69,2.69,0,0,1,240.34,168.23Zm-3.08,19c0-5.92-3.75-10.8-10.27-10.8s-10.28,4.95-10.28,10.8,3.75,10.8,10.28,10.8S237.26,193.13,237.26,187.27Z"/><path class="cls-2" d="M287.21,153.75h4.2a2.69,2.69,0,0,1,2.7,2.7v47.1a2.69,2.69,0,0,1-2.7,2.7h-4.2a2.67,2.67,0,0,1-2.62-2.7v-1.8c-2.47,3.15-6.22,5.4-12.15,5.4-11.77,0-18.52-10-18.52-19.87s6.75-19.95,18.52-19.95c5.92,0,9.67,2.25,12.15,5.4V156.45A2.67,2.67,0,0,1,287.21,153.75Zm-3.08,33.52c0-5.92-3.67-10.8-10.2-10.8s-10.28,4.95-10.28,10.8,3.75,10.8,10.28,10.8S284.14,193.13,284.14,187.27Z"/><path class="cls-3" d="M119.89,153v10.8l-15,13.5h-18l15-13.5h-36l12-10.8Zm-21,29.7h-18l-15,13.5V207h42l12-10.8h-36Z"/></svg>