<?xml version="1.0" encoding="utf-8"?>
<!-- Generator: Adobe Illustrator 23.0.3, SVG Export Plug-In . SVG Version: 6.00 Build 0)  -->
<svg version="1.1" id="Layer_1" xmlns="http://www.w3.org/2000/svg" xmlns:xlink="http://www.w3.org/1999/xlink" x="0px" y="0px"
	 viewBox="0 0 600 600" style="enable-background:new 0 0 600 600;" xml:space="preserve">
<style type="text/css">
	.st0{fill:#BF2026;}
</style>
<g>
	<g>
		<g>
			<path id="d61bSgr1ZJ" class="st0" d="M326.8,20.7l11.3,1.1l11.2,1.6l11,2l10.9,2.5l10.7,2.9l10.5,3.3l10.3,3.7l10.2,4.1l10,4.4
				l9.7,4.8l9.5,5.2l9.3,5.5l9.1,5.9l8.8,6.2l8.6,6.5l8.3,6.8l8,7.2l7.7,7.5l7.5,7.7l7.2,8l6.9,8.3l6.5,8.6l6.2,8.8l5.9,9.1l5.5,9.3
				l5.2,9.5l4.8,9.7l4.4,10l4.1,10.2l3.7,10.3L573,222l2.9,10.7l2.4,10.9l2,11l1.6,11.2l1.1,11.3l0.7,11.4l0.2,11.5l-0.2,11.5
				l-0.7,11.4l-1.1,11.3l-1.6,11.2l-2,11l-2.4,10.9L573,378l-3.3,10.5l-3.7,10.3L562,409l-4.4,10l-4.8,9.7l-5.2,9.5l-5.5,9.3
				l-5.9,9.1l-6.2,8.8l-6.5,8.6l-6.9,8.3l-7.2,8l-7.5,7.8l-7.7,7.5l-8,7.2l-8.3,6.9l-8.6,6.5l-8.8,6.2l-9.1,5.9l-9.3,5.5l-9.5,5.2
				l-9.7,4.8l-10,4.4l-10.2,4.1l-10.3,3.7l-10.5,3.3l-10.7,2.9l-10.9,2.5l-11,2l-11.2,1.6l-11.3,1.1l-11.4,0.7l-11.5,0.2l-11.5-0.2
				l-11.4-0.7l-11.3-1.1l-11.2-1.6l-11-2l-10.9-2.5l-10.7-2.9l-10.5-3.3l-10.3-3.7l-10.2-4.1l-10-4.4l-9.7-4.8l-9.5-5.2l-9.3-5.5
				l-9.1-5.9l-8.8-6.2l-8.6-6.5l-8.3-6.9l-8-7.2l-7.7-7.5l-7.5-7.8l-7.2-8l-6.8-8.3l-6.5-8.6l-6.2-8.8l-5.9-9.1l-5.5-9.3l-5.2-9.5
				l-4.8-9.7l-4.4-10l-4.1-10.2L38,388.5L34.7,378l-2.9-10.7l-2.5-10.9l-2-11l-1.6-11.2L24.6,323l-0.7-11.4L23.7,300l0.2-11.5
				l0.7-11.4l1.2-11.3l1.6-11.2l2-11l2.5-10.9l2.9-10.7l3.3-10.5l3.7-10.3l4.1-10.2l4.4-10l4.8-9.7l5.2-9.5l5.5-9.3l5.9-9.1l6.2-8.8
				l6.5-8.6l6.8-8.3l7.2-8l7.5-7.7l7.7-7.5l8-7.2l8.3-6.8l8.6-6.5l8.8-6.2l9.1-5.9l9.3-5.5l9.5-5.2l9.7-4.8l10-4.4l10.2-4.1
				l10.3-3.7l10.5-3.3l10.7-2.9l10.9-2.5l11-2l11.2-1.6l11.3-1.1l11.4-0.7l11.5-0.2l11.5,0.2L326.8,20.7z M309.6,39.3l-9.4,0.9
				l-9.3,1.3l-9.2,1.7l-9,2l-8.9,2.4l-8.7,2.7l-8.6,3.1l-8.4,3.4l-8.3,3.7l-8.1,4l-7.9,4.3l-7.7,4.6l-7.5,4.9l-7.3,5.2l-7.1,5.4
				l-6.9,5.7l-6.7,5.9l-6.4,6.2l-6.2,6.4l-5.9,6.7l-5.7,6.9l-5.4,7.1l-5.1,7.3l-4.9,7.5l-4.6,7.7l-4.3,7.9l-4,8.1l-3.7,8.3L111,189
				l-3.1,8.6l-2.7,8.7l-2.4,8.9l-2,9l-1.7,9.1l-1.3,9.3l-0.9,9.4l-0.6,9.5l-0.2,9.6l0.2,9.6l0.6,9.5l0.9,9.4l1.3,9.3l1.7,9.1l2,9
				l2.4,8.9l2.7,8.7l3.1,8.6l3.4,8.4l3.7,8.3l4,8.1l4.3,7.9l4.6,7.7l4.9,7.5l5.1,7.3l5.4,7.1l5.7,6.9l5.9,6.7l6.2,6.4l6.4,6.2
				l6.7,5.9l6.9,5.7l7.1,5.4l7.3,5.2l7.5,4.9l7.7,4.6l7.9,4.3l8.1,4l8.3,3.7l8.4,3.4l8.6,3.1l8.7,2.7l8.9,2.4l9,2l9.2,1.7l9.3,1.3
				l9.4,1l9.5,0.6l9.6,0.2l9.6-0.2l9.5-0.6l9.4-1l9.3-1.3l9.1-1.7l9-2l8.9-2.4l8.7-2.7l8.6-3.1l8.4-3.4l8.3-3.7l8.1-4l7.9-4.3
				l7.7-4.6l7.5-4.9l7.3-5.2l7.1-5.4l6.9-5.7l6.7-5.9l6.4-6.2l6.2-6.4l5.9-6.7l5.7-6.9l5.4-7.1l5.2-7.3l4.9-7.5l4.6-7.7l4.3-7.9
				l4-8.1l3.7-8.3l3.4-8.4l3-8.6l2.7-8.7l2.4-8.9l2-9l1.7-9.1l1.3-9.3l1-9.4l0.6-9.5l0.2-9.6l-0.2-9.6l-0.6-9.5l-1-9.4l-1.3-9.3
				l-1.7-9.1l-2-9l-2.4-8.9l-2.7-8.7l-3-8.6l-3.4-8.4l-3.7-8.3l-4-8.1l-4.3-7.9l-4.6-7.7l-4.9-7.5l-5.2-7.3l-5.4-7.1l-5.7-6.9
				l-5.9-6.7l-6.2-6.4l-6.4-6.2l-6.7-5.9l-6.9-5.7l-7.1-5.4l-7.3-5.2l-7.5-4.9l-7.7-4.6l-7.9-4.3l-8.1-4l-8.3-3.7l-8.4-3.4l-8.6-3.1
				l-8.7-2.7l-8.9-2.4l-9-2l-9.1-1.7l-9.3-1.3l-9.4-0.9l-9.5-0.6l-9.6-0.2l-9.6,0.2L309.6,39.3z"/>
		</g>
	</g>
	<g>
		<g>
			<path id="a20XfsN4wP" class="st0" d="M358.4,48.4l8.7,0.9l8.6,1.2l8.4,1.6l8.3,1.9l8.2,2.2l8.1,2.5l7.9,2.8l7.8,3.1L432,68
				l7.5,3.7l7.3,4l7.1,4.2l6.9,4.5l6.8,4.8l6.6,5l6.4,5.3l6.2,5.5l5.9,5.7l5.7,5.9l5.5,6.2l5.3,6.4l5,6.6l4.8,6.8l4.5,6.9l4.2,7.1
				l4,7.3l3.7,7.5l3.4,7.6l3.1,7.8l2.8,7.9l2.5,8.1l2.2,8.2l1.9,8.3l1.6,8.4l1.2,8.6l0.9,8.7l0.5,8.7l0.2,8.8l-0.2,8.8l-0.5,8.7
				l-0.9,8.7l-1.2,8.5l-1.6,8.4l-1.9,8.3L547,322l-2.5,8.1l-2.8,7.9l-3.1,7.8l-3.4,7.6l-3.7,7.5l-4,7.3l-4.2,7.1l-4.5,6.9L514,389
				l-5,6.6l-5.3,6.4l-5.5,6.2l-5.7,5.9l-5.9,5.7l-6.2,5.5l-6.4,5.3l-6.6,5l-6.8,4.8l-6.9,4.5l-7.1,4.2l-7.3,4l-7.5,3.7l-7.6,3.4
				l-7.8,3.1l-7.9,2.8l-8.1,2.5l-8.2,2.2l-8.3,1.9l-8.4,1.5l-8.6,1.2l-8.7,0.9l-8.7,0.5l-8.8,0.2l-8.8-0.2l-8.7-0.5l-8.7-0.9
				l-8.6-1.2l-8.4-1.5l-8.3-1.9l-8.2-2.2l-8.1-2.5l-7.9-2.8l-7.8-3.1l-7.6-3.4l-7.5-3.7l-7.3-4l-7.1-4.2l-6.9-4.5l-6.8-4.8l-6.6-5
				l-6.4-5.3l-6.2-5.5l-5.9-5.7l-5.7-5.9l-5.5-6.2l-5.3-6.4l-5-6.6l-4.8-6.8l-4.5-6.9l-4.2-7.1l-4-7.3l-3.7-7.5l-3.4-7.6L140,338
				l-2.8-7.9l-2.5-8.1l-2.2-8.2l-1.9-8.3l-1.6-8.4l-1.2-8.5l-0.9-8.7l-0.5-8.7l-0.2-8.8l0.2-8.8l0.5-8.7l0.9-8.7l1.2-8.6l1.6-8.4
				l1.9-8.3l2.2-8.2l2.5-8.1l2.8-7.9l3.1-7.8l3.4-7.6l3.7-7.5l4-7.3l4.2-7.1l4.5-6.9l4.8-6.8l5-6.6l5.3-6.4l5.5-6.2l5.7-5.9l5.9-5.7
				l6.2-5.5l6.4-5.3l6.6-5l6.8-4.8l6.9-4.5l7.1-4.2l7.3-4l7.5-3.7l7.6-3.4l7.8-3.1l7.9-2.8l8.1-2.5l8.2-2.2l8.3-1.9l8.4-1.6l8.6-1.2
				l8.7-0.9l8.7-0.5l8.8-0.2l8.8,0.2L358.4,48.4z M345.2,62.6l-7.2,0.7l-7.1,1l-7,1.3l-6.9,1.6l-6.8,1.8l-6.7,2.1l-6.6,2.3l-6.5,2.6
				l-6.3,2.8l-6.2,3.1l-6.1,3.3l-5.9,3.5l-5.8,3.7l-5.6,4l-5.4,4.2l-5.3,4.4l-5.1,4.5l-4.9,4.7l-4.7,4.9l-4.5,5.1l-4.4,5.3l-4.1,5.4
				l-4,5.6l-3.7,5.8l-3.5,5.9l-3.3,6.1l-3.1,6.2l-2.8,6.3l-2.6,6.5l-2.3,6.6l-2.1,6.7l-1.8,6.8l-1.6,6.9l-1.3,7l-1,7.1l-0.7,7.2
				l-0.4,7.3l-0.1,7.3l0.1,7.3l0.4,7.3l0.7,7.2l1,7.1l1.3,7l1.6,6.9l1.8,6.8l2.1,6.7l2.3,6.6l2.6,6.5l2.8,6.3l3.1,6.2l3.3,6.1
				l3.5,5.9l3.7,5.8l4,5.6l4.1,5.4l4.4,5.3l4.5,5.1l4.7,4.9l4.9,4.7l5.1,4.5l5.3,4.4l5.4,4.2l5.6,4l5.8,3.7l5.9,3.5l6.1,3.3l6.2,3.1
				l6.3,2.8l6.5,2.6l6.6,2.3l6.7,2.1l6.8,1.8l6.9,1.6l7,1.3l7.1,1l7.2,0.7l7.3,0.4l7.3,0.1l7.3-0.1l7.3-0.4l7.2-0.7l7.1-1l7-1.3
				l6.9-1.6l6.8-1.8l6.7-2.1l6.6-2.3l6.4-2.6l6.3-2.8l6.2-3.1l6.1-3.3l5.9-3.5l5.8-3.7l5.6-4l5.4-4.2l5.3-4.4l5.1-4.5l4.9-4.7
				l4.7-4.9l4.6-5.1l4.4-5.3l4.2-5.4l4-5.6l3.7-5.8l3.5-5.9l3.3-6.1l3.1-6.2l2.8-6.3l2.6-6.5l2.3-6.6l2.1-6.7l1.8-6.8l1.6-6.9l1.3-7
				l1-7.1l0.7-7.2l0.4-7.3l0.1-7.3l-0.1-7.3l-0.4-7.3l-0.7-7.2l-1-7.1l-1.3-7l-1.6-6.9l-1.8-6.8l-2.1-6.7l-2.3-6.6l-2.6-6.5
				l-2.8-6.3l-3.1-6.2l-3.3-6.1l-3.5-5.9l-3.7-5.8l-4-5.6l-4.2-5.4l-4.4-5.3l-4.6-5.1l-4.7-4.9l-4.9-4.7l-5.1-4.5l-5.3-4.4l-5.4-4.2
				l-5.6-4l-5.8-3.7l-5.9-3.5l-6.1-3.3l-6.2-3.1l-6.3-2.8l-6.4-2.6l-6.6-2.3l-6.7-2.1l-6.8-1.8l-6.9-1.6l-7-1.3l-7.1-1l-7.2-0.7
				l-7.3-0.4l-7.3-0.1l-7.3,0.1L345.2,62.6z"/>
		</g>
	</g>
	<g>
		<g>
			<path id="f2bRna00oP" class="st0" d="M381.3,70.7l6.5,0.7l6.4,0.9l6.3,1.2l6.2,1.4l6.1,1.6l6,1.9l5.9,2.1l5.8,2.3l5.7,2.5
				l5.6,2.8l5.4,3l5.3,3.2l5.2,3.4l5,3.5l4.9,3.7l4.7,3.9l4.6,4.1l4.4,4.3l4.3,4.4l4.1,4.6l3.9,4.7l3.7,4.9l3.5,5l3.4,5.2l3.2,5.3
				l3,5.4l2.8,5.6l2.5,5.7l2.3,5.8l2.1,5.9l1.9,6l1.6,6.1l1.4,6.2l1.2,6.3l0.9,6.4l0.7,6.5l0.4,6.5l0.1,6.6l-0.1,6.6l-0.4,6.5
				l-0.7,6.5l-0.9,6.4l-1.2,6.3l-1.4,6.2l-1.6,6.1l-1.9,6l-2.1,5.9l-2.3,5.8l-2.5,5.7l-2.8,5.6l-3,5.4l-3.2,5.3l-3.4,5.2l-3.5,5
				l-3.7,4.9l-3.9,4.7l-4.1,4.6l-4.3,4.4l-4.4,4.3l-4.6,4.1l-4.7,3.9l-4.9,3.7l-5,3.5l-5.2,3.4l-5.3,3.2l-5.4,3l-5.6,2.8l-5.7,2.5
				l-5.8,2.3l-5.9,2.1l-6,1.9l-6.1,1.7l-6.2,1.4l-6.3,1.2l-6.4,0.9l-6.5,0.7l-6.5,0.4l-6.6,0.1l-6.6-0.1l-6.5-0.4l-6.5-0.7l-6.4-0.9
				l-6.3-1.2l-6.2-1.4l-6.1-1.7l-6-1.9l-5.9-2.1l-5.8-2.3l-5.7-2.5l-5.6-2.8l-5.4-3l-5.3-3.2l-5.2-3.4l-5-3.5l-4.9-3.7l-4.8-3.9
				l-4.6-4.1l-4.4-4.3l-4.3-4.4l-4.1-4.6l-3.9-4.7l-3.7-4.9l-3.6-5l-3.4-5.2l-3.2-5.3l-3-5.4l-2.8-5.6l-2.5-5.7l-2.3-5.8l-2.1-5.9
				l-1.9-6l-1.6-6.1l-1.4-6.2l-1.2-6.3l-0.9-6.4l-0.6-6.5l-0.4-6.5l-0.1-6.6l0.1-6.6l0.4-6.5l0.6-6.5l0.9-6.4l1.2-6.3l1.4-6.2
				l1.6-6.1l1.9-6l2.1-5.9l2.3-5.8l2.5-5.7l2.8-5.6l3-5.4l3.2-5.3l3.4-5.2l3.6-5l3.7-4.9l3.9-4.7l4.1-4.6l4.3-4.4l4.4-4.3l4.6-4.1
				l4.8-3.9l4.9-3.7l5-3.5l5.2-3.4l5.3-3.2l5.4-3l5.6-2.8l5.7-2.5l5.8-2.3l5.9-2.1l6-1.9l6.1-1.6l6.2-1.4l6.3-1.2l6.4-0.9l6.5-0.7
				l6.5-0.4l6.6-0.1l6.6,0.1L381.3,70.7z M371.4,81.3l-5.4,0.5l-5.3,0.8l-5.2,1l-5.2,1.2l-5.1,1.4l-5,1.6l-4.9,1.7l-4.8,1.9
				l-4.7,2.1l-4.6,2.3l-4.5,2.5l-4.4,2.6l-4.3,2.8l-4.2,3l-4.1,3.1l-3.9,3.3l-3.8,3.4l-3.7,3.5l-3.5,3.7l-3.4,3.8l-3.2,3.9l-3.1,4.1
				l-3,4.2l-2.8,4.3l-2.6,4.4l-2.5,4.5l-2.3,4.6l-2.1,4.7l-1.9,4.8l-1.7,4.9l-1.6,5l-1.4,5.1l-1.2,5.2l-1,5.2l-0.8,5.3l-0.5,5.4
				l-0.3,5.4l-0.1,5.5l0.1,5.5l0.3,5.4l0.5,5.4l0.8,5.3l1,5.2l1.2,5.2l1.4,5.1l1.6,5l1.7,4.9l1.9,4.8l2.1,4.7l2.3,4.6l2.5,4.5
				l2.6,4.4l2.8,4.3l3,4.2l3.1,4.1l3.2,3.9l3.4,3.8l3.5,3.7l3.7,3.5l3.8,3.4l3.9,3.2l4.1,3.1l4.2,3l4.3,2.8l4.4,2.6l4.5,2.5l4.6,2.3
				l4.7,2.1l4.8,1.9l4.9,1.8l5,1.5l5.1,1.4l5.2,1.2l5.2,1l5.3,0.8l5.4,0.5l5.4,0.3l5.5,0.1l5.5-0.1l5.4-0.3l5.4-0.5l5.3-0.8l5.2-1
				l5.2-1.2l5.1-1.4l5-1.5l4.9-1.8l4.8-1.9l4.7-2.1l4.6-2.3l4.5-2.5l4.4-2.6l4.3-2.8l4.2-3l4.1-3.1l3.9-3.2l3.8-3.4l3.7-3.5l3.5-3.7
				l3.4-3.8l3.3-3.9l3.1-4.1l3-4.2l2.8-4.3l2.6-4.4l2.5-4.5l2.3-4.6l2.1-4.7l1.9-4.8l1.7-4.9l1.6-5l1.4-5.1l1.2-5.2l1-5.2l0.8-5.3
				l0.5-5.4l0.3-5.4l0.1-5.5l-0.1-5.5l-0.3-5.4l-0.5-5.4l-0.8-5.3l-1-5.2l-1.2-5.2l-1.4-5.1l-1.6-5l-1.7-4.9l-1.9-4.8l-2.1-4.7
				l-2.3-4.6l-2.5-4.5l-2.6-4.4l-2.8-4.3l-3-4.2l-3.1-4.1l-3.3-3.9l-3.4-3.8l-3.5-3.7l-3.7-3.5l-3.8-3.4l-3.9-3.3l-4.1-3.1l-4.2-3
				l-4.3-2.8l-4.4-2.6l-4.5-2.5l-4.6-2.3l-4.7-2.1l-4.8-1.9l-4.9-1.7l-5-1.6l-5.1-1.4l-5.2-1.2l-5.2-1l-5.3-0.8l-5.4-0.5l-5.4-0.3
				l-5.5-0.1l-5.5,0.1L371.4,81.3z"/>
		</g>
	</g>
</g>
</svg>
