<svg id="Layer_1" data-name="Layer 1" xmlns="http://www.w3.org/2000/svg" viewBox="0 0 360 360"><defs><style>.cls-1{fill:#fff;}</style></defs><title>Untitled-3</title><rect width="360" height="360" rx="72" ry="72"/><path class="cls-1" d="M164.39,253.2H146.54v13h15.67a2.69,2.69,0,0,1,2.7,2.7v4a2.69,2.69,0,0,1-2.7,2.7H146.54v17.92a2.69,2.69,0,0,1-2.7,2.7H139a2.69,2.69,0,0,1-2.7-2.7v-47.1a2.69,2.69,0,0,1,2.7-2.7h25.35a2.69,2.69,0,0,1,2.7,2.7v4A2.69,2.69,0,0,1,164.39,253.2Z"/><path class="cls-1" d="M204.59,258.23h4.12a2.69,2.69,0,0,1,2.7,2.7v32.62a2.69,2.69,0,0,1-2.7,2.7h-4.12a2.69,2.69,0,0,1-2.7-2.7v-1.8c-2.4,3.15-6.22,5.4-12.15,5.4-11.77,0-18.52-10-18.52-19.87s6.75-19.95,18.52-19.95c5.92,0,9.75,2.25,12.15,5.4v-1.8A2.69,2.69,0,0,1,204.59,258.23Zm-3.08,19c0-5.92-3.75-10.8-10.27-10.8S181,271.42,181,277.27s3.75,10.8,10.28,10.8S201.51,283.13,201.51,277.27Z"/><path class="cls-1" d="M240.36,257.48a2,2,0,0,1,2.25,2v6a2,2,0,0,1-2,2c-9.37-.3-10.65,6.45-10.65,13v13a2.67,2.67,0,0,1-2.62,2.7h-4.2a2.69,2.69,0,0,1-2.7-2.7V260.93a2.69,2.69,0,0,1,2.7-2.7h4.2a2.67,2.67,0,0,1,2.63,2.7v3.45A15.3,15.3,0,0,1,240.36,257.48Z"/><path class="cls-1" d="M284.84,278.33a2.66,2.66,0,0,1-2.62,2.62H256.49c1.35,5,5.55,7.73,10.8,7.73a11.55,11.55,0,0,0,7.5-2.7,1.93,1.93,0,0,1,2.33-.23l4.27,2.55a2,2,0,0,1,.38,3.15,20.42,20.42,0,0,1-14.47,5.7c-12.6,0-20.92-8.33-20.92-19.87,0-11.92,8.92-19.95,19.42-19.95C276.59,257.33,285.36,264.9,284.84,278.33Zm-9.45-4.73c-1-5-4.35-7.8-9.45-7.8-4.65,0-8.33,2.93-9.45,7.8Z"/><path class="cls-1" d="M129.14,243v10.8l-15,13.5h-18l15-13.5h-36l12-10.8Zm-21,29.7h-18l-15,13.5V297h42l12-10.8h-36Z"/><path class="cls-1" d="M210.37,111.23v4.45a8.89,8.89,0,0,1,8.89,8.89h4.45a8.9,8.9,0,0,1,8.89-8.89v-4.45a8.89,8.89,0,0,1-8.89-8.89h-4.45A8.89,8.89,0,0,1,210.37,111.23Zm7.37,2.22a13.44,13.44,0,0,0,3.75-3.75,13.45,13.45,0,0,0,3.75,3.75,13.44,13.44,0,0,0-3.75,3.75A13.44,13.44,0,0,0,217.74,113.45ZM195.84,97.2v3.42a6.84,6.84,0,0,1,6.84,6.84h3.42a6.85,6.85,0,0,1,6.84-6.84V97.2a6.84,6.84,0,0,1-6.84-6.84h-3.42A6.84,6.84,0,0,1,195.84,97.2Zm5.67,1.71A10.34,10.34,0,0,0,204.39,96a10.34,10.34,0,0,0,2.88,2.88,10.34,10.34,0,0,0-2.88,2.88A10.34,10.34,0,0,0,201.5,98.91Zm30.24-1.2v2.39a4.79,4.79,0,0,1,4.79,4.79h2.39a4.79,4.79,0,0,1,4.79-4.79V97.72a4.79,4.79,0,0,1-4.79-4.79h-2.39A4.79,4.79,0,0,1,231.74,97.72Zm4,1.2a7.24,7.24,0,0,0,2-2,7.24,7.24,0,0,0,2,2,7.24,7.24,0,0,0-2,2A7.24,7.24,0,0,0,235.71,98.91Zm-102,10.6a17.1,17.1,0,1,0,17.1,17.1A17.1,17.1,0,0,0,133.75,109.51ZM142,132.08v-5.47h-5.47v5.47H131v-5.47h-5.47v5.47h-5.47v-5.47h5.47v-5.47H131v5.47h5.47v-5.47H142v5.47h5.47v5.47Zm-23.91,54H103V173.68H118v-4.11a4.1,4.1,0,0,1,4.11-4.11H103V87.62h61.56V139h8.21V69.84A6.84,6.84,0,0,0,165.89,63H101.6a6.84,6.84,0,0,0-6.84,6.84V187.49a6.84,6.84,0,0,0,6.84,6.84H118ZM103,71.21h61.56v8.21H103Z"/><path class="cls-1" d="M214,187.88H201.16a1.8,1.8,0,0,1-1.8-1.8v-4.61a1.8,1.8,0,0,1,1.8-1.8H214a1.8,1.8,0,0,1,1.8,1.8v4.61A1.8,1.8,0,0,1,214,187.88Zm69.21,15.42L278.06,169a4.1,4.1,0,0,0-4.06-3.5H242.18l-20.07-25a4.1,4.1,0,0,0-3.2-1.53h-9.1V126.4a4.11,4.11,0,0,0-4.11-4.11H189a4.11,4.11,0,0,0-4.11,4.11V139H159.8a4.11,4.11,0,0,0-3.83,2.62l-9.24,23.89H122.15a4.1,4.1,0,0,0-4.11,4.11V203.9a4.1,4.1,0,0,0,4.11,4.11h12.17a21.14,21.14,0,0,0,38.42,0h52.79A21.14,21.14,0,0,0,264,208h15.17a4.11,4.11,0,0,0,4.06-4.71Zm-51.54-37.82h-38.5V147.16h23.79Zm-38.5-35h8.45V139h-8.45Zm-30.54,16.65h22.33v18.3H155.53Zm-9.08,65A13,13,0,0,1,141.16,203c0-.13-.07-.26-.11-.39a12.94,12.94,0,1,1,25,0,3,3,0,0,0-.1.35,13,13,0,0,1-12.38,9.17Zm0-34.1a21.18,21.18,0,0,0-21.15,21.15c0,.21,0,.42,0,.63h-6.13V173.68h58.68V199.8H174.66c0-.21,0-.41,0-.63A21.18,21.18,0,0,0,153.53,178Zm91.22,34.1A13,13,0,0,1,232.38,203a3.6,3.6,0,0,0-.12-.41,12.95,12.95,0,1,1,25,0l-.07.24a13,13,0,0,1-12.41,9.26Zm21.14-12.32c0-.21,0-.41,0-.63a21.15,21.15,0,0,0-42.31,0c0,.21,0,.42,0,.63H193.15V173.68h77.32l3.9,26.11Z"/></svg>