<svg id="Layer_1" data-name="Layer 1" xmlns="http://www.w3.org/2000/svg" viewBox="0 0 360 360"><defs><style>.cls-1{fill:#fff;}</style></defs><title>Untitled-2</title><rect class="cls-1" width="360" height="360" rx="72" ry="72"/><path d="M164.39,163.2H146.54v13h15.67a2.69,2.69,0,0,1,2.7,2.7v4a2.69,2.69,0,0,1-2.7,2.7H146.54v17.92a2.69,2.69,0,0,1-2.7,2.7H139a2.69,2.69,0,0,1-2.7-2.7v-47.1a2.69,2.69,0,0,1,2.7-2.7h25.35a2.69,2.69,0,0,1,2.7,2.7v4A2.69,2.69,0,0,1,164.39,163.2Z"/><path d="M204.59,168.23h4.12a2.69,2.69,0,0,1,2.7,2.7v32.62a2.69,2.69,0,0,1-2.7,2.7h-4.12a2.69,2.69,0,0,1-2.7-2.7v-1.8c-2.4,3.15-6.22,5.4-12.15,5.4-11.77,0-18.52-10-18.52-19.87s6.75-19.95,18.52-19.95c5.92,0,9.75,2.25,12.15,5.4v-1.8A2.69,2.69,0,0,1,204.59,168.23Zm-3.08,19c0-5.92-3.75-10.8-10.27-10.8S181,181.42,181,187.27s3.75,10.8,10.28,10.8S201.51,193.13,201.51,187.27Z"/><path d="M240.36,167.48a2,2,0,0,1,2.25,2v6a2,2,0,0,1-2,2c-9.37-.3-10.65,6.45-10.65,13v13a2.67,2.67,0,0,1-2.62,2.7h-4.2a2.69,2.69,0,0,1-2.7-2.7V170.93a2.69,2.69,0,0,1,2.7-2.7h4.2a2.67,2.67,0,0,1,2.63,2.7v3.45A15.3,15.3,0,0,1,240.36,167.48Z"/><path d="M284.84,188.33a2.66,2.66,0,0,1-2.62,2.62H256.49c1.35,5,5.55,7.73,10.8,7.73a11.55,11.55,0,0,0,7.5-2.7,1.93,1.93,0,0,1,2.33-.23l4.27,2.55a2,2,0,0,1,.38,3.15,20.42,20.42,0,0,1-14.47,5.7c-12.6,0-20.92-8.33-20.92-19.87,0-11.92,8.92-19.95,19.42-19.95C276.59,167.33,285.36,174.9,284.84,188.33Zm-9.45-4.73c-1-5-4.35-7.8-9.45-7.8-4.65,0-8.33,2.93-9.45,7.8Z"/><path d="M129.14,153v10.8l-15,13.5h-18l15-13.5h-36l12-10.8Zm-21,29.7h-18l-15,13.5V207h42l12-10.8h-36Z"/></svg>