<svg id="Layer_1" data-name="Layer 1" xmlns="http://www.w3.org/2000/svg" viewBox="0 0 360 360"><defs><style>.cls-1{fill:#fff;}</style></defs><title>Untitled-2</title><rect width="360" height="360" rx="72" ry="72"/><path class="cls-1" d="M186.42,171.9c0,10.88-7.65,18.07-20.1,18.07h-7.42v13.57a2.69,2.69,0,0,1-2.7,2.7h-4.8a2.69,2.69,0,0,1-2.7-2.7v-47.1a2.69,2.69,0,0,1,2.7-2.7h14.92C178.77,153.75,186.42,161,186.42,171.9Zm-10.35,0c0-5.55-3.6-8.7-9.75-8.7h-7.42v17.32h7.42C172.47,180.53,176.07,177.38,176.07,171.9Z"/><path class="cls-1" d="M223.17,168.23h4.12a2.69,2.69,0,0,1,2.7,2.7v32.62a2.69,2.69,0,0,1-2.7,2.7h-4.12a2.69,2.69,0,0,1-2.7-2.7v-1.8c-2.4,3.15-6.22,5.4-12.15,5.4-11.77,0-18.52-10-18.52-19.87s6.75-19.95,18.52-19.95c5.92,0,9.75,2.25,12.15,5.4v-1.8A2.69,2.69,0,0,1,223.17,168.23Zm-3.08,19c0-5.92-3.75-10.8-10.27-10.8s-10.27,4.95-10.27,10.8,3.75,10.8,10.27,10.8S220.09,193.13,220.09,187.27Z"/><path class="cls-1" d="M265.47,168.23h5a2,2,0,0,1,1.88,2.77c-3.15,7.88-12.07,30.45-14,35.25-3.6,8.85-7,14.47-14.62,14.47a13.45,13.45,0,0,1-2.33-.23,2,2,0,0,1-1.72-1.95v-3.6a2,2,0,0,1,1.88-2c4-.15,6.22-2.55,8.32-8.92-.52-1.27-10.87-24.75-14.55-32.92a2,2,0,0,1,1.88-2.85h4.87a3.32,3.32,0,0,1,3.15,2.17l8.85,22.87,8.25-22.8A3.38,3.38,0,0,1,265.47,168.23Z"/><path class="cls-1" d="M141.49,153v10.8l-15,13.5h-18l15-13.5h-36l12-10.8Zm-21,29.7h-18l-15,13.5V207h42l12-10.8h-36Z"/></svg>