<svg id="Layer_1" data-name="Layer 1" xmlns="http://www.w3.org/2000/svg" viewBox="0 0 360 360"><defs><style>.cls-1{fill:#fff;}</style></defs><title>Untitled-2</title><rect width="360" height="360" rx="72" ry="72"/><path class="cls-1" d="M227.13,76.34V71.89A8.89,8.89,0,0,1,218.24,63h-4.45a8.9,8.9,0,0,1-8.89,8.89v4.45a8.89,8.89,0,0,1,8.89,8.89h4.45A8.89,8.89,0,0,1,227.13,76.34Zm-7.37-2.22A13.44,13.44,0,0,0,216,77.87a13.45,13.45,0,0,0-3.75-3.75A13.44,13.44,0,0,0,216,70.37,13.44,13.44,0,0,0,219.77,74.12Zm21.9,16.25V86.94a6.84,6.84,0,0,1-6.84-6.84h-3.42a6.85,6.85,0,0,1-6.84,6.84v3.42a6.84,6.84,0,0,1,6.84,6.84h3.42A6.84,6.84,0,0,1,241.67,90.36ZM236,88.65a10.34,10.34,0,0,0-2.88,2.88,10.34,10.34,0,0,0-2.88-2.88,10.34,10.34,0,0,0,2.88-2.88A10.34,10.34,0,0,0,236,88.65Zm-30.24,1.2V87.45A4.79,4.79,0,0,1,201,82.67h-2.39a4.79,4.79,0,0,1-4.79,4.79v2.39a4.79,4.79,0,0,1,4.79,4.79H201A4.79,4.79,0,0,1,205.76,89.85Zm-4-1.2a7.24,7.24,0,0,0-2,2,7.24,7.24,0,0,0-2-2,7.24,7.24,0,0,0,2-2A7.24,7.24,0,0,0,201.79,88.65ZM274,198.09l-10.56-18.3a3.42,3.42,0,0,0-4.67-1.25l-2,1.18h0l-.59-1a.43.43,0,0,1-.06-.19l.24-3.46a22.65,22.65,0,0,0-3-12.78l-16.13-27.93a11.16,11.16,0,0,0-15.15-4.11l-.06,0a11,11,0,0,0-1.42,1,11.28,11.28,0,0,0-11.42-.24l-.06,0a11,11,0,0,0-2.74,2.25l-.14,0a11,11,0,0,0-8.51,1l-.06,0-.36.22-4.55-7.88a10.94,10.94,0,0,0-6.7-5.15,11.1,11.1,0,0,0-8.5,1.07q-.4.23-.78.49t-.54.41a11.4,11.4,0,0,0-2.52,14.6l8.19,14.19h-8.67V165.6H111.71v-78h61.56V101h8.21V69.84A6.84,6.84,0,0,0,174.63,63h-64.3a6.84,6.84,0,0,0-6.84,6.84V187.49a6.84,6.84,0,0,0,6.84,6.84h64.3a6.84,6.84,0,0,0,6.84-6.84V174.56l12.65,21.91a22.65,22.65,0,0,0,9.62,9l3,1.47a.49.49,0,0,1,.21.21l.56,1h0l-2,1.18a3.42,3.42,0,0,0-1.25,4.67l10.56,18.3a3.42,3.42,0,0,0,4.67,1.25l53.31-30.78A3.42,3.42,0,0,0,274,198.09ZM111.71,71.21h61.56v8.21H111.71Zm61.56,114.91H111.71V173.81h61.56Zm37.14,13.48-3.07-1.5a14.48,14.48,0,0,1-6.12-5.74l-13.26-23a2.89,2.89,0,0,1,1.06-3.95l2.5-1.44,7.22,12.51a2.89,2.89,0,1,0,5-2.89l-22.95-39.74a3.15,3.15,0,0,1,.67-4.09,2.84,2.84,0,0,1,2.45-.38,2.7,2.7,0,0,1,1.72,1.31l17.33,30a2.89,2.89,0,1,0,5-2.89l-7.22-12.51a2.89,2.89,0,0,1,1.06-3.95,3,3,0,0,1,3.95,1.06L213,155a2.89,2.89,0,1,0,5-2.89l-5.78-10a2.89,2.89,0,0,1,1.06-3.95,3,3,0,0,1,3.95,1.06l5.78,10a2.89,2.89,0,1,0,5-2.89l-2.89-5a2.89,2.89,0,0,1,1.06-3.95,3,3,0,0,1,3.95,1.06l16.14,28a14.52,14.52,0,0,1,1.91,8.17l-.24,3.4a8.64,8.64,0,0,0,1.16,4.9l.56,1-35,20.22-.56-1A8.68,8.68,0,0,0,210.41,199.6Zm9.1,24.43-5.78-10,45-26,5.78,10Z"/><path class="cls-1" d="M177.2,144.05H162a15.06,15.06,0,0,0-15-15v-4.79a15.06,15.06,0,0,0,15-15h39a15.07,15.07,0,0,0,15,15v5.42a11.39,11.39,0,0,1,4.6,1.6,11,11,0,0,1,1.42-1l.06,0a10.87,10.87,0,0,1,2.14-.94V104.38A3.42,3.42,0,0,0,220.8,101H142.14a3.42,3.42,0,0,0-3.42,3.42v44.46a3.42,3.42,0,0,0,3.42,3.42h39.79ZM216,109.17V116a6.84,6.84,0,0,1-6.84-6.84Zm-69.08,0h6.84a6.84,6.84,0,0,1-6.84,6.84Zm0,34.88v-6.84a6.84,6.84,0,0,1,6.84,6.84Z"/><path class="cls-1" d="M154.84,286.8a2.63,2.63,0,0,1,2.63,2.7v4a2.63,2.63,0,0,1-2.62,2.7H129.72a2.67,2.67,0,0,1-2.63-2.7v-47.1a2.67,2.67,0,0,1,2.63-2.7h4.87a2.69,2.69,0,0,1,2.7,2.7V286.8Z"/><path class="cls-1" d="M202.46,277.27a20.06,20.06,0,1,1-20.1-19.95A19.74,19.74,0,0,1,202.46,277.27Zm-9.75,0c0-5.92-4-10.8-10.35-10.8s-10.27,4.87-10.27,10.8,4,10.8,10.27,10.8S192.71,283.2,192.71,277.27Z"/><path class="cls-1" d="M240.34,258.23h4.12a2.69,2.69,0,0,1,2.7,2.7v32.62a2.69,2.69,0,0,1-2.7,2.7h-4.12a2.69,2.69,0,0,1-2.7-2.7v-1.8c-2.4,3.15-6.22,5.4-12.15,5.4-11.77,0-18.52-10-18.52-19.87s6.75-19.95,18.52-19.95c5.92,0,9.75,2.25,12.15,5.4v-1.8A2.69,2.69,0,0,1,240.34,258.23Zm-3.08,19c0-5.92-3.75-10.8-10.27-10.8s-10.28,4.95-10.28,10.8,3.75,10.8,10.28,10.8S237.26,283.13,237.26,277.27Z"/><path class="cls-1" d="M287.21,243.75h4.2a2.69,2.69,0,0,1,2.7,2.7v47.1a2.69,2.69,0,0,1-2.7,2.7h-4.2a2.67,2.67,0,0,1-2.62-2.7v-1.8c-2.47,3.15-6.22,5.4-12.15,5.4-11.77,0-18.52-10-18.52-19.87s6.75-19.95,18.52-19.95c5.92,0,9.67,2.25,12.15,5.4V246.45A2.67,2.67,0,0,1,287.21,243.75Zm-3.08,33.52c0-5.92-3.67-10.8-10.2-10.8s-10.28,4.95-10.28,10.8,3.75,10.8,10.28,10.8S284.14,283.13,284.14,277.27Z"/><path class="cls-1" d="M119.89,243v10.8l-15,13.5h-18l15-13.5h-36l12-10.8Zm-21,29.7h-18l-15,13.5V297h42l12-10.8h-36Z"/></svg>