<svg xmlns="http://www.w3.org/2000/svg" xmlns:xlink="http://www.w3.org/1999/xlink" viewBox="0 0 1011.56 960.04"><defs><style>.cls-1{fill:url(#linear-gradient);}.cls-2{fill:url(#linear-gradient-2);}.cls-3{fill:url(#linear-gradient-3);}.cls-4{fill:url(#linear-gradient-4);}.cls-5{fill:url(#linear-gradient-5);}.cls-6{fill:url(#linear-gradient-6);}.cls-7{fill:url(#linear-gradient-7);}.cls-8{fill:url(#linear-gradient-8);}.cls-9{fill:url(#linear-gradient-9);}</style><linearGradient id="linear-gradient" x1="374.1" y1="336.14" x2="662.17" y2="316.05" gradientUnits="userSpaceOnUse"><stop offset="0" stop-color="#03aaec"/><stop offset="1" stop-color="#2e3191"/></linearGradient><linearGradient id="linear-gradient-2" x1="298.13" y1="46.94" x2="891" y2="30.19" xlink:href="#linear-gradient"/><linearGradient id="linear-gradient-3" x1="178.14" y1="44.18" x2="117.85" y2="251.85" xlink:href="#linear-gradient"/><linearGradient id="linear-gradient-4" x1="281.35" y1="747.53" x2="1008.33" y2="747.53" xlink:href="#linear-gradient"/><linearGradient id="linear-gradient-5" x1="303.55" y1="513.27" x2="561.46" y2="530.02" xlink:href="#linear-gradient"/><linearGradient id="linear-gradient-6" x1="240.11" y1="463.38" x2="153.02" y2="771.54" xlink:href="#linear-gradient"/><linearGradient id="linear-gradient-7" x1="0" y1="834.51" x2="129.07" y2="834.51" xlink:href="#linear-gradient"/><linearGradient id="linear-gradient-8" x1="516.2" y1="280.28" x2="1015.28" y2="149.65" gradientUnits="userSpaceOnUse"><stop offset="0" stop-color="#2e3191"/><stop offset="1" stop-color="#03aaec"/></linearGradient><linearGradient id="linear-gradient-9" x1="551.3" y1="807.89" x2="233.09" y2="1206.49" xlink:href="#linear-gradient-8"/></defs><title>Asset 1</title><g id="Layer_2" data-name="Layer 2"><g id="Layer_1-2" data-name="Layer 1"><polygon class="cls-1" points="477.41 475.3 349.14 398.17 601.94 173.88 730.22 251.02 477.41 475.3"/><polygon class="cls-2" points="305.83 77.13 177.55 0 883.29 0 1011.56 77.13 305.83 77.13"/><polygon class="cls-3" points="131.51 251.02 3.24 173.88 177.55 0 305.83 77.13 131.51 251.02"/><polygon class="cls-4" points="409.62 786.1 281.35 708.97 880.05 708.97 1008.33 786.1 409.62 786.1"/><polygon class="cls-5" points="382.18 561.88 253.9 484.75 534.15 484.75 662.43 561.88 382.18 561.88"/><polygon class="cls-6" points="129.07 786.1 0.8 708.97 253.9 484.75 382.18 561.88 129.07 786.1"/><polygon class="cls-7" points="128.28 960.04 0 882.91 0.8 708.97 129.07 786.1 128.28 960.04"/><polygon class="cls-8" points="1011.56 77.13 1010.77 251.02 757.66 475.3 477.41 475.3 730.22 251.02 131.51 251.02 305.83 77.13 1011.56 77.13"/><polygon class="cls-9" points="662.43 561.88 409.62 786.1 1008.33 786.1 834.01 960.04 128.28 960.04 129.07 786.1 382.18 561.88 662.43 561.88"/></g></g></svg>